<svg height="512" viewBox="0 0 64 64" width="512" xmlns="http://www.w3.org/2000/svg"><g id="facemask-coronavirus-faceshield-protect-covid19"><path d="m46.62 37h-29.24a4 4 0 0 1 -3.98-4.362l1.6-17.638h34l1.6 17.638a4 4 0 0 1 -3.98 4.362z" fill="#e6e7e8"/><path d="m46 11v8.28a2 2 0 0 0 -1-.28h-2a4 4 0 0 0 -4-4h-14a4 4 0 0 0 -4 4h-2a2 2 0 0 0 -1 .28v-9.28a6 6 0 0 1 6-6h1a3 3 0 0 1 3 3 3.995 3.995 0 0 1 4-4h6a8 8 0 0 1 8 8z" fill="#414042"/><path d="m25 4h-1a6 6 0 0 0 -6 6v9.28a2 2 0 0 1 1-.28h2a4 4 0 0 1 4-4h3v-8a3 3 0 0 0 -3-3z" fill="#58595b"/><path d="m58.508 55.325a16 16 0 0 0 -14.53-14.26 13.008 13.008 0 0 1 -23.956 0 16 16 0 0 0 -14.546 14.3l-.476 5.635h54z" fill="#006df0"/><path d="m58.508 55.325a16 16 0 0 0 -14.53-14.26c-.042.1-.091.19-.134.286a15.989 15.989 0 0 1 12.664 13.974l.492 5.675h2z" fill="#005ece"/><path d="m51 13a2.006 2.006 0 0 1 -2 2h-34a2 2 0 0 1 0-4h34a2.006 2.006 0 0 1 2 2z" fill="#ff5023"/><path d="m49.973 11.265a2 2 0 0 1 -1.973 1.735h-34a1.963 1.963 0 0 1 -.973-.265 1.934 1.934 0 0 0 -.027.265 2.006 2.006 0 0 0 2 2h34a1.992 1.992 0 0 0 .973-3.735z" fill="#df461f"/><path d="m42.6 41h-3.6a2.006 2.006 0 0 1 -2-2v-3.2a11.025 11.025 0 0 1 -10 0v3.2a2.006 2.006 0 0 1 -2 2h-3.608c-.462 0-.917.026-1.37.065a13.008 13.008 0 0 0 23.956 0c-.457-.039-.917-.065-1.378-.065z" fill="#ffb8a5"/><path d="m37 36.8v-1a11.025 11.025 0 0 1 -10 0v1a11.025 11.025 0 0 0 10 0z" fill="#ffac96"/><path d="m43 25.64c0 .12 0 .24-.01.36h2.01a2.006 2.006 0 0 0 2-2v-3a2.006 2.006 0 0 0 -2-2h-2z" fill="#ffac96"/><path d="m21 19h-2a2.006 2.006 0 0 0 -2 2v3a2.006 2.006 0 0 0 2 2h2z" fill="#ffac96"/><path d="m21 15h22a0 0 0 0 1 0 0v11a11 11 0 0 1 -11 11 11 11 0 0 1 -11-11v-11a0 0 0 0 1 0 0z" fill="#ffbcab"/><path d="m32 24-7 2v8.485a11 11 0 0 0 14 0v-8.485z" fill="#57a4ff"/><path d="m37 25.429v3.4a7.1 7.1 0 0 1 -6.916 7.171h-.084a10.954 10.954 0 0 1 -3.855-.7 10.974 10.974 0 0 0 12.855-.815v-8.485z" fill="#2488ff"/><g fill="#231f20"><path d="m59.5 55.22a16.956 16.956 0 0 0 -16.9-15.22h-3.6a1 1 0 0 1 -1-1v-1h8.62a5.006 5.006 0 0 0 4.98-5.45l-1.52-16.76a2.995 2.995 0 0 0 -1.08-5.79h-2.06a9.016 9.016 0 0 0 -8.94-8h-6a5.013 5.013 0 0 0 -3.54 1.47 4.562 4.562 0 0 0 -.6.73 4 4 0 0 0 -2.86-1.2h-1a7.008 7.008 0 0 0 -7 7h-2a2.995 2.995 0 0 0 -1.08 5.79l-1.52 16.76a5.006 5.006 0 0 0 4.98 5.45h8.62v1a1 1 0 0 1 -1 1h-3.61a16.95 16.95 0 0 0 -16.91 15.28l-.48 5.64a.995.995 0 0 0 1 1.08h54a1 1 0 0 0 1-1.09zm-21.5-21.32a9.608 9.608 0 0 1 -5.8 2.1h-.18a9.861 9.861 0 0 1 -6.02-2.01v-7.24l6-1.71 6 1.71zm10.83 1.12a2.955 2.955 0 0 1 -2.21.98h-8.11c.39-.27.77-.55 1.14-.86l.05-.05a.01.01 0 0 0 .01-.01 12.5 12.5 0 0 0 4.2-8.08h1.09a3.009 3.009 0 0 0 3-3v-3a2.986 2.986 0 0 0 -1-2.22v-2.78h1.09l1.52 16.73a2.935 2.935 0 0 1 -.78 2.29zm-8.83-3.22v-5.39l2-2v1.23c0 .09 0 .19-.01.33a10.537 10.537 0 0 1 -1.99 5.83zm5-13.8h-1.1a4.84 4.84 0 0 0 -.93-2h2.03zm1 3v3a1 1 0 0 1 -1 1h-1v-5h1a1 1 0 0 1 1 1zm-22-16h1a2.006 2.006 0 0 1 2 2 1 1 0 0 0 2 0 2.988 2.988 0 0 1 3-3h6a7 7 0 0 1 6.92 6h-25.92a5 5 0 0 1 5-5zm-10 8a1 1 0 0 1 1-1h34a1 1 0 0 1 0 2h-34a1 1 0 0 1 -1-1zm8 11.41 2 2v5.57a9.979 9.979 0 0 1 -2-5.98zm-3-6.41v-2h2.03a4.84 4.84 0 0 0 -.93 2zm1 2v5h-1a1 1 0 0 1 -1-1v-3a1 1 0 0 1 1-1zm-2.62 16a3.016 3.016 0 0 1 -2.99-3.27l1.52-16.73h1.09v2.78a2.986 2.986 0 0 0 -1 2.22v3a3.009 3.009 0 0 0 3 3h1.06a11.958 11.958 0 0 0 4.23 8.19h.01l.06.06.01-.01a.01.01 0 0 1 .01.01l-.01.01a10.327 10.327 0 0 0 1 .74zm7.91-11.12-3.29-3.29v-2.59a3.009 3.009 0 0 1 3-3h14a3.009 3.009 0 0 1 3 3v2.59l-3.29 3.29-6.44-1.84a.991.991 0 0 0 -.54 0zm-.29 17.12a3.009 3.009 0 0 0 3-3v-1h8v1a3.009 3.009 0 0 0 3 3h3.39a12 12 0 0 1 -20.78 0zm23 18v-7a1 1 0 0 0 -2 0v7h-28v-7a1 1 0 0 0 -2 0v7h-9.91l.38-4.53a14.955 14.955 0 0 1 12.95-13.33 14 14 0 0 0 25.16 0 14.95 14.95 0 0 1 12.93 13.27l.4 4.59z"/><path d="m36 23a1 1 0 0 0 1-1v-1a1 1 0 0 0 -2 0v1a1 1 0 0 0 1 1z"/><path d="m28 23a1 1 0 0 0 1-1v-1a1 1 0 0 0 -2 0v1a1 1 0 0 0 1 1z"/><path d="m29 30h6a1 1 0 0 0 0-2h-6a1 1 0 0 0 0 2z"/><path d="m36 32a1 1 0 0 0 -1-1h-6a1 1 0 0 0 0 2h6a1 1 0 0 0 1-1z"/></g></g></svg>